<svg id="Layer_1" data-name="Layer 1" xmlns="http://www.w3.org/2000/svg" viewBox="0 0 182.31 163.48"><defs><style>.cls-1,.cls-2{fill:none;stroke:#000;stroke-miterlimit:10;}.cls-2{stroke-width:1.25px;}</style></defs><title>circuit</title><line class="cls-1" x1="71.58" y1="19.71" x2="0.5" y2="19.71"/><line class="cls-1" x1="0.94" y1="144.38" x2="0.5" y2="19.71"/><line class="cls-1" x1="70.7" y1="143.71" x2="0.94" y2="144.38"/><line class="cls-1" x1="111.2" y1="144.21" x2="170.34" y2="143.93"/><line class="cls-1" x1="170.34" y1="101.42" x2="170.34" y2="143.93"/><line class="cls-1" x1="181.86" y1="76.4" x2="170.34" y2="101.42"/><line class="cls-1" x1="170.34" y1="73.3" x2="170.34" y2="20.15"/><line class="cls-1" x1="85.97" y1="19.49" x2="170.34" y2="20.15"/><line class="cls-1" x1="85.53" x2="85.53" y2="33.44"/><line class="cls-1" x1="71.14" y1="11.51" x2="71.14" y2="25.47"/><line class="cls-2" x1="97.21" y1="9.46" x2="97.21" y2="16.37"/><line class="cls-2" x1="93.62" y1="13.06" x2="101.36" y2="13.06"/><line class="cls-1" x1="57.83" y1="12.87" x2="63.83" y2="12.84"/><circle class="cls-1" cx="91.07" cy="143.49" r="19.49"/><line class="cls-1" x1="77.56" y1="130.43" x2="104.57" y2="157.66"/><line class="cls-1" x1="101.92" y1="127.33" x2="80.44" y2="160.32"/></svg>