<svg id="Layer_1" data-name="Layer 1" xmlns="http://www.w3.org/2000/svg" viewBox="0 0 236.03 472.79"><defs><style>.cls-1{fill:none;stroke:#231f20;stroke-miterlimit:10;}.cls-2{font-size:31.78px;}.cls-2,.cls-3,.cls-4{fill:#231f20;}.cls-2,.cls-3{font-family:Myriad Pro;}.cls-3{font-size:30.4px;}.cls-4{font-size:12px;font-family:Lato;}</style></defs><title>elements</title><line class="cls-1" x1="21.08" y1="18.67" x2="48.75" y2="18.65"/><line class="cls-1" x1="48.62" y1="10.72" x2="48.78" y2="24.29"/><line class="cls-1" x1="62.77" y1="19.07" x2="88.9" y2="18.85"/><line class="cls-1" x1="61.92" x2="62.11" y2="32.53"/><line class="cls-1" x1="73.58" y1="11.18" x2="73.57" y2="16.46"/><line class="cls-1" x1="70.61" y1="13.67" x2="76.57" y2="13.65"/><line class="cls-1" x1="36.05" y1="12.2" x2="41.78" y2="12.2"/><line class="cls-1" x1="63.38" y1="51.79" x2="63.51" y2="92.41"/><line class="cls-1" x1="30.88" y1="92.66" x2="97.63" y2="92.54"/><circle class="cls-1" cx="63.46" cy="92.54" r="1.17"/><line class="cls-1" x1="63.26" y1="114.79" x2="63.26" y2="196.29"/><line class="cls-1" x1="31.01" y1="155.04" x2="98.26" y2="155.54"/><line class="cls-1" x1="0.01" y1="231.29" x2="41.76" y2="231.79"/><line class="cls-1" x1="122.76" y1="231.54" x2="82.01" y2="231.54"/><line class="cls-1" x1="41.51" y1="212.29" x2="82.01" y2="231.54"/><circle class="cls-1" cx="66.76" cy="281.79" r="33.5"/><line class="cls-1" x1="40.01" y1="261.54" x2="93.26" y2="301.54"/><line class="cls-1" x1="93.51" y1="262.29" x2="41.01" y2="302.29"/><circle class="cls-1" cx="66.51" cy="361.04" r="34.75"/><text class="cls-2" transform="translate(57.2 370.59)">A</text><circle class="cls-1" cx="67.01" cy="438.54" r="33.75"/><text class="cls-3" transform="translate(58.35 447.69)">V</text><text class="cls-4" transform="translate(120.51 22.7)">Galvaanielement</text><text class="cls-4" transform="translate(116.17 81.7)">Juhtmete ühendus</text><text class="cls-4" transform="translate(132.01 158.87)">Juhtmete lõikumine</text><text class="cls-4" transform="translate(166.84 230.54)">Lüliti</text><text class="cls-4" transform="translate(153.84 284.54)">Hõõglamp</text><text class="cls-4" transform="translate(148.01 362.37)">Ampermeeter</text><text class="cls-4" transform="translate(161.67 441.87)">V<tspan x="7.46" y="0">oltmeeter</tspan></text></svg>