<svg id="Layer_1" data-name="Layer 1" xmlns="http://www.w3.org/2000/svg" viewBox="0 0 499.16 557.33"><defs><style>.cls-1,.cls-2{fill:none;stroke:#231f20;stroke-miterlimit:10;stroke-width:3.17px;}.cls-2{stroke-linecap:round;}.cls-3{font-size:36.77px;fill:#231f20;font-family:Lato;}.cls-4{letter-spacing:-2px;}</style></defs><title>gemmaproject</title><circle class="cls-1" cx="250.54" cy="250.02" r="123.05"/><line class="cls-1" x1="248.31" y1="141.37" x2="247.56" y2="189.44"/><line class="cls-2" x1="229.53" y1="166.15" x2="248.31" y2="141.37"/><line class="cls-2" x1="267.25" y1="166.3" x2="248.47" y2="141.52"/><line class="cls-1" x1="248.13" y1="314.92" x2="247.38" y2="362.99"/><line class="cls-2" x1="229.36" y1="339.71" x2="248.13" y2="314.92"/><line class="cls-2" x1="267.07" y1="339.86" x2="248.29" y2="315.07"/><line class="cls-2" x1="348.92" y1="223.48" x2="348.91" y2="261.89"/><line class="cls-2" x1="329.89" y1="241.36" x2="368.77" y2="241.35"/><line class="cls-2" x1="131.92" y1="244.25" x2="166.51" y2="244.3"/><line class="cls-2" x1="247.58" y1="117.74" x2="247.94" y2="66.16"/><line class="cls-2" x1="299.46" y1="66.16" x2="247.94" y2="66.16"/><line class="cls-2" x1="299.46" y1="66.16" x2="265.18" y2="42.04"/><line class="cls-2" x1="299.36" y1="66.28" x2="265.08" y2="90.41"/><line class="cls-2" x1="85.21" y1="243.05" x2="33.64" y2="243.31"/><line class="cls-2" x1="33.53" y1="294.82" x2="33.64" y2="243.31"/><line class="cls-2" x1="33.53" y1="294.82" x2="9.47" y2="260.49"/><line class="cls-2" x1="33.65" y1="294.73" x2="57.85" y2="260.5"/><line class="cls-2" x1="464.22" y1="295.77" x2="463.86" y2="244.2"/><line class="cls-2" x1="412.34" y1="244.2" x2="463.86" y2="244.2"/><line class="cls-2" x1="412.34" y1="244.2" x2="446.62" y2="220.07"/><line class="cls-2" x1="412.44" y1="244.32" x2="446.72" y2="268.44"/><line class="cls-2" x1="246.47" y1="419.06" x2="245.47" y2="511.95"/><line class="cls-2" x1="217.8" y1="460.87" x2="246.47" y2="419.06"/><line class="cls-2" x1="275.66" y1="461.38" x2="246.98" y2="419.57"/><circle class="cls-1" cx="441.1" cy="51.38" r="33.02" transform="translate(81.81 404.45) rotate(-63.03)"/><line class="cls-1" x1="340.31" y1="8.35" x2="334.28" y2="19.76"/><line class="cls-2" x1="332.81" y1="12" x2="340.31" y2="8.35"/><line class="cls-2" x1="341.81" y1="16.62" x2="340.33" y2="8.41"/><line class="cls-1" x1="319.15" y1="49.84" x2="313.12" y2="61.25"/><line class="cls-2" x1="311.64" y1="53.48" x2="319.15" y2="49.84"/><line class="cls-2" x1="320.65" y1="58.11" x2="319.17" y2="49.9"/><line class="cls-2" x1="354.38" y1="40.24" x2="349.71" y2="49.42"/><line class="cls-2" x1="347.65" y1="42.2" x2="356.95" y2="46.92"/><line class="cls-2" x1="299.96" y1="18.8" x2="308.22" y2="23.02"/><text class="cls-3" transform="translate(0 335.95)">Gnd</text><text class="cls-3" transform="translate(221.82 550.62)">D1</text><text class="cls-3" transform="translate(434.52 341.28)">3<tspan class="cls-4" x="21.33" y="0">V</tspan><tspan x="44.2" y="0">o</tspan></text></svg>