<svg id="Layer_1" data-name="Layer 1" xmlns="http://www.w3.org/2000/svg" viewBox="0 0 175.17 165.25"><defs><style>.cls-1{fill:none;}.cls-1,.cls-2{stroke:#000;stroke-miterlimit:10;}</style></defs><title>pconnection</title><line class="cls-1" x1="73.33" y1="19.75" x2="2.58" y2="20"/><line class="cls-1" x1="2.33" y1="144.5" x2="2.58" y2="20"/><line class="cls-1" x1="62.08" y1="144.5" x2="2.33" y2="144.5"/><line class="cls-1" x1="102.33" y1="144.75" x2="173.08" y2="144.75"/><line class="cls-1" x1="173.08" y1="19.75" x2="173.08" y2="144.75"/><line class="cls-1" x1="87.83" y1="20" x2="173.08" y2="19.75"/><line class="cls-1" x1="87.83" x2="88.08" y2="33.75"/><line class="cls-1" x1="73.58" y1="11.75" x2="73.58" y2="26"/><line class="cls-1" x1="60.33" y1="12.84" x2="67.17" y2="12.84"/><line class="cls-1" x1="96.21" y1="12.25" x2="103.58" y2="12.25"/><line class="cls-1" x1="99.96" y1="8.38" x2="99.83" y2="15.5"/><line class="cls-1" x1="2.42" y1="82.09" x2="61.42" y2="81.92"/><line class="cls-1" x1="102.25" y1="82.09" x2="173.08" y2="82.25"/><circle class="cls-1" cx="81.92" cy="81.92" r="20.33"/><circle class="cls-1" cx="81.92" cy="144.42" r="20.33"/><line class="cls-1" x1="67.58" y1="67.42" x2="96.08" y2="96.42"/><line class="cls-1" x1="93.75" y1="65.42" x2="70.92" y2="99.09"/><line class="cls-1" x1="67.92" y1="129.59" x2="96.25" y2="158.75"/><line class="cls-1" x1="93.58" y1="127.75" x2="70.75" y2="161.59"/><circle class="cls-2" cx="2.42" cy="82.09" r="1.92"/><circle class="cls-2" cx="172.83" cy="82" r="1.83"/></svg>