<svg id="Layer_1" data-name="Layer 1" xmlns="http://www.w3.org/2000/svg" viewBox="0 0 295.5 107.98"><defs><style>.cls-1,.cls-2,.cls-4,.cls-5,.cls-6,.cls-7,.cls-8,.cls-9{fill:none;}.cls-1,.cls-2,.cls-6,.cls-8,.cls-9{stroke:#000;}.cls-1,.cls-2,.cls-4,.cls-5,.cls-6,.cls-7,.cls-8{stroke-linecap:round;}.cls-1,.cls-8{stroke-linejoin:round;}.cls-1,.cls-2{stroke-width:5px;}.cls-2,.cls-4,.cls-5,.cls-6,.cls-7,.cls-9{stroke-miterlimit:10;}.cls-3{fill:#dec278;}.cls-4{stroke:#80351c;}.cls-4,.cls-5,.cls-6,.cls-7{stroke-width:11px;}.cls-5{stroke:#f80000;}.cls-7{stroke:#d0a83e;}.cls-8,.cls-9{stroke-width:4px;}.cls-9{stroke-linecap:square;}</style></defs><title>resistor</title><line class="cls-1" x1="2.5" y1="26.99" x2="66" y2="27.49"/><line class="cls-2" x1="231" y1="26.82" x2="293" y2="26.82"/><rect class="cls-3" x="68.17" y="1.16" width="160.67" height="52.3" rx="12" ry="12"/><line class="cls-4" x1="110.77" y1="6.23" x2="110.5" y2="49.09"/><line class="cls-5" x1="129.7" y1="6.68" x2="129.56" y2="48.68"/><line class="cls-6" x1="149.7" y1="6.1" x2="149.43" y2="48.97"/><line class="cls-7" x1="186.61" y1="5.5" x2="186.33" y2="48.36"/><line class="cls-8" x1="3.94" y1="91.49" x2="27.94" y2="91.49"/><line class="cls-8" x1="33.5" y1="77.49" x2="28.5" y2="90.82"/><line class="cls-8" x1="43.83" y1="103.82" x2="34.5" y2="77.49"/><line class="cls-8" x1="55.5" y1="76.82" x2="43.83" y2="103.82"/><line class="cls-8" x1="66.17" y1="103.82" x2="55.5" y2="76.82"/><line class="cls-8" x1="78.17" y1="77.16" x2="66.5" y2="104.82"/><line class="cls-8" x1="89.5" y1="103.49" x2="78.17" y2="77.16"/><line class="cls-8" x1="100.5" y1="76.16" x2="90.17" y2="103.82"/><line class="cls-8" x1="112.17" y1="103.49" x2="100.5" y2="77.16"/><line class="cls-8" x1="117.83" y1="89.49" x2="112.17" y2="103.49"/><line class="cls-8" x1="141.17" y1="89.49" x2="117.5" y2="89.49"/><line class="cls-9" x1="156.76" y1="90.12" x2="181.5" y2="90.16"/><line class="cls-9" x1="182.17" y1="76.82" x2="182.17" y2="104.82"/><line class="cls-9" x1="267.5" y1="76.16" x2="182.17" y2="76.82"/><line class="cls-9" x1="267.5" y1="104.49" x2="267.5" y2="76.16"/><line class="cls-9" x1="182.17" y1="105.82" x2="267.37" y2="105.98"/><line class="cls-9" x1="268.48" y1="91.13" x2="293.23" y2="91.17"/></svg>