<svg id="Layer_1" data-name="Layer 1" xmlns="http://www.w3.org/2000/svg" viewBox="0 0 171 164.75"><defs><style>.cls-1{fill:none;stroke:#000;stroke-miterlimit:10;}</style></defs><title>sconnection</title><line class="cls-1" x1="0.5" y1="19.75" x2="0.75" y2="144.25"/><line class="cls-1" x1="43" y1="143.75" x2="0.75" y2="144.25"/><line class="cls-1" x1="84.5" y1="143.75" x2="92.75" y2="143.75"/><line class="cls-1" x1="134.25" y1="144" x2="170.5" y2="143.75"/><line class="cls-1" x1="170.25" y1="19.5" x2="170.5" y2="143.75"/><line class="cls-1" x1="85.52" y1="19.52" x2="170.25" y2="19.5"/><line class="cls-1" x1="85.5" x2="85.48" y2="33.35"/><line class="cls-1" x1="71.19" y1="11.45" x2="71" y2="25.5"/><line class="cls-1" x1="0.5" y1="19" x2="71" y2="19"/><line class="cls-1" x1="58" y1="12.5" x2="63.75" y2="12.5"/><line class="cls-1" x1="94.17" y1="12.25" x2="101.5" y2="12.25"/><line class="cls-1" x1="97.67" y1="8.75" x2="97.67" y2="15.81"/><circle class="cls-1" cx="64" cy="143.75" r="20.5"/><circle class="cls-1" cx="113.75" cy="143.75" r="20.5"/><line class="cls-1" x1="50" y1="128.5" x2="78.5" y2="158"/><line class="cls-1" x1="75.75" y1="127.5" x2="53.25" y2="161.25"/><line class="cls-1" x1="99" y1="129.25" x2="128.25" y2="158"/><line class="cls-1" x1="125.25" y1="126.5" x2="102.5" y2="160.25"/></svg>