<svg id="Layer_1" data-name="Layer 1" xmlns="http://www.w3.org/2000/svg" viewBox="0 0 329.2 230.3"><defs><style>.cls-1,.cls-2{fill:none;stroke:#000;stroke-miterlimit:10;}.cls-2{stroke-linecap:round;}.cls-3{font-size:12px;font-family:Lato;}</style></defs><title>switches2</title><line class="cls-1" x1="71.5" y1="38.63" x2="178" y2="38.63"/><line class="cls-1" x1="207.5" y1="38.13" x2="291" y2="39.63"/><line class="cls-1" x1="206.5" y1="26.63" x2="178" y2="38.63"/><line class="cls-1" x1="71.5" y1="100.63" x2="71.5" y2="38.63"/><line class="cls-1" x1="38.5" y1="102.13" x2="103" y2="102.13"/><line class="cls-1" x1="52.5" y1="112.63" x2="88.5" y2="112.13"/><line class="cls-1" x1="39.5" y1="123.13" x2="103" y2="123.63"/><line class="cls-1" x1="53.5" y1="134.63" x2="89" y2="134.13"/><line class="cls-1" x1="71.5" y1="197.63" x2="71.5" y2="134.13"/><line class="cls-1" x1="179.5" y1="198.13" x2="71.5" y2="197.63"/><line class="cls-1" x1="203" y1="198.13" x2="291" y2="198.13"/><line class="cls-1" x1="292" y1="135.13" x2="291" y2="198.13"/><line class="cls-1" x1="292" y1="102.63" x2="291" y2="39.63"/><line class="cls-1" x1="179.88" y1="184.76" x2="179.5" y2="211.76"/><line class="cls-1" x1="202.38" y1="184.76" x2="179.5" y2="198.13"/><line class="cls-1" x1="202.63" y1="211.26" x2="179.5" y2="198.13"/><line class="cls-1" x1="202.25" y1="185.13" x2="202.63" y2="211.26"/><line class="cls-2" x1="286.75" y1="131.38" x2="291.92" y2="135.6"/><line class="cls-2" x1="297" y1="125.88" x2="286.75" y2="131.38"/><line class="cls-2" x1="286.13" y1="121.83" x2="297" y2="125.88"/><line class="cls-2" x1="296.25" y1="115.88" x2="286" y2="121.63"/><line class="cls-2" x1="286.51" y1="111.83" x2="296.25" y2="115.88"/><line class="cls-2" x1="297.32" y1="105.99" x2="286.25" y2="111.63"/><line class="cls-2" x1="292" y1="102.63" x2="297.5" y2="105.88"/><polygon points="175.27 222.56 177.83 225.63 166.68 229.5 166.62 229.33 175.27 222.56"/><polygon points="168.78 214.3 171.33 217.46 161.41 220.87 161.33 220.63 168.78 214.3"/><polygon points="166.62 229.33 166.68 229.5 166.08 229.71 166.04 229.61 172.83 219.63 175.27 222.56 166.62 229.33"/><polygon points="161.33 220.63 161.41 220.87 160.67 221.13 166.5 211.46 168.78 214.3 161.33 220.63"/><polyline class="cls-1" points="185 214.96 175.27 222.56 166.62 229.33"/><polyline class="cls-1" points="174.67 209.3 168.78 214.3 161.33 220.63"/><line class="cls-2" x1="160.67" y1="221.13" x2="166.5" y2="211.46"/><polyline class="cls-2" points="171.33 217.46 161.41 220.87 160.67 221.13"/><polyline class="cls-2" points="166.5 211.46 168.78 214.3 171.33 217.46"/><line class="cls-2" x1="172.83" y1="219.63" x2="166.04" y2="229.61"/><polyline class="cls-2" points="177.83 225.63 166.68 229.5 166.08 229.71 165.83 229.8"/><polyline class="cls-2" points="172.83 219.63 175.27 222.56 177.83 225.63"/><line class="cls-2" x1="61.67" y1="140.97" x2="61.67" y2="149.97"/><line class="cls-2" x1="61.67" y1="88.63" x2="61.67" y2="96.3"/><line class="cls-2" x1="57.22" y1="92.61" x2="66.33" y2="92.63"/><text class="cls-3" transform="translate(0 113.3)">3V</text><text class="cls-3" transform="translate(176.33 10.3)">switch</text><text class="cls-3" transform="translate(304 122.3)">62 Ω</text></svg>